<svg width="48" height="48" viewBox="0 0 48 48" fill="none" xmlns="http://www.w3.org/2000/svg">
<circle cx="23.8069" cy="23.8069" r="23.429" stroke="#D81311" stroke-width="0.755776"/>
<path d="M24.1859 20.7461C23.3441 20.7461 22.5367 21.0686 21.9414 21.6426C21.3461 22.2166 21.0117 22.9952 21.0117 23.807C21.0117 24.6188 21.3461 25.3973 21.9414 25.9714C22.5367 26.5454 23.3441 26.8679 24.1859 26.8679C25.0278 26.8679 25.8352 26.5454 26.4305 25.9714C27.0257 25.3973 27.3602 24.6188 27.3602 23.807C27.3602 22.9952 27.0257 22.2166 26.4305 21.6426C25.8352 21.0686 25.0278 20.7461 24.1859 20.7461ZM24.1859 18.7055C25.589 18.7055 26.9347 19.243 27.9268 20.1997C28.919 21.1564 29.4763 22.454 29.4763 23.807C29.4763 25.16 28.919 26.4576 27.9268 27.4143C26.9347 28.371 25.589 28.9085 24.1859 28.9085C22.7828 28.9085 21.4372 28.371 20.445 27.4143C19.4529 26.4576 18.8955 25.16 18.8955 23.807C18.8955 22.454 19.4529 21.1564 20.445 20.1997C21.4372 19.243 22.7828 18.7055 24.1859 18.7055ZM31.0635 18.4504C31.0635 18.7887 30.9241 19.1131 30.6761 19.3522C30.4281 19.5914 30.0916 19.7258 29.7409 19.7258C29.3901 19.7258 29.0537 19.5914 28.8056 19.3522C28.5576 19.1131 28.4183 18.7887 28.4183 18.4504C28.4183 18.1122 28.5576 17.7878 28.8056 17.5486C29.0537 17.3094 29.3901 17.175 29.7409 17.175C30.0916 17.175 30.4281 17.3094 30.6761 17.5486C30.9241 17.7878 31.0635 18.1122 31.0635 18.4504ZM24.1859 15.6446C21.5682 15.6446 21.1407 15.6517 19.9229 15.7038C19.0934 15.7415 18.5368 15.8487 18.0205 16.0425C17.5883 16.1955 17.1977 16.4407 16.8777 16.7598C16.5465 17.0683 16.2919 17.445 16.1328 17.8617C15.9318 18.3616 15.8207 18.8973 15.7826 19.6962C15.7276 20.8226 15.7202 21.2164 15.7202 23.807C15.7202 26.3322 15.7276 26.7434 15.7815 27.9178C15.8207 28.7166 15.9318 29.2543 16.1318 29.7512C16.3116 30.1951 16.5233 30.5144 16.8745 30.8531C17.2311 31.196 17.5623 31.401 18.0173 31.5704C18.54 31.7653 19.0965 31.8734 19.9218 31.9102C21.09 31.9632 21.4984 31.9694 24.1849 31.9694C26.8036 31.9694 27.23 31.9622 28.4479 31.9102C29.2753 31.8724 29.8319 31.7653 30.3493 31.5725C30.781 31.4187 31.1715 31.1736 31.492 30.8552C31.8486 30.5124 32.0613 30.193 32.2369 29.7533C32.4379 29.2513 32.5501 28.7146 32.5882 27.9167C32.6432 26.7913 32.6495 26.3965 32.6495 23.807C32.6495 21.2828 32.6421 20.8706 32.5882 19.6962C32.549 18.8983 32.4369 18.3596 32.2369 17.8617C32.0774 17.4454 31.8232 17.0689 31.4931 16.7598C31.1732 16.4403 30.7826 16.1947 30.3503 16.0415C29.8319 15.8476 29.2753 15.7405 28.4479 15.7038C27.2808 15.6507 26.8724 15.6446 24.1849 15.6446M24.1849 13.604C27.0597 13.604 27.4184 13.6142 28.5473 13.6652C29.6732 13.7162 30.4413 13.8866 31.1153 14.1397C31.8137 14.3988 32.402 14.7498 32.9903 15.3161C33.5283 15.8261 33.9446 16.4431 34.2102 17.124C34.4716 17.774 34.6493 18.5147 34.7022 19.6013C34.752 20.6889 34.7657 21.0348 34.7657 23.807C34.7657 26.5791 34.7551 26.925 34.7022 28.0126C34.6493 29.0993 34.4716 29.839 34.2102 30.4899C33.9453 31.1712 33.5289 31.7883 32.9903 32.2979C32.4612 32.8165 31.8214 33.2179 31.1153 33.4743C30.4413 33.7263 29.6732 33.8977 28.5473 33.9487C27.4184 33.9967 27.0597 34.0099 24.1849 34.0099C21.31 34.0099 20.9514 33.9997 19.8224 33.9487C18.6966 33.8977 17.9295 33.7263 17.2544 33.4743C16.5479 33.2187 15.908 32.8172 15.3795 32.2979C14.8414 31.7879 14.425 31.1709 14.1595 30.4899C13.8971 29.84 13.7204 29.0993 13.6675 28.0126C13.6167 26.925 13.604 26.5791 13.604 23.807C13.604 21.0348 13.6146 20.6889 13.6675 19.6013C13.7204 18.5147 13.8971 17.775 14.1595 17.124C14.4243 16.4427 14.8407 15.8255 15.3795 15.3161C15.9082 14.797 16.5481 14.3955 17.2544 14.1397C17.9284 13.8866 18.6955 13.7162 19.8224 13.6652C20.9524 13.6173 21.3111 13.604 24.1859 13.604" fill="#D81311"/>
</svg>
