<svg width="48" height="48" viewBox="0 0 48 48" fill="none" xmlns="http://www.w3.org/2000/svg">
<circle cx="23.8069" cy="23.8069" r="23.429" stroke="#D81311" stroke-width="0.755776"/>
<path fill-rule="evenodd" clip-rule="evenodd" d="M29.0169 16.1175C29.264 16.0135 29.5345 15.9776 29.8002 16.0136C30.0659 16.0496 30.317 16.1561 30.5276 16.3222C30.7381 16.4882 30.9003 16.7076 30.9973 16.9575C31.0942 17.2075 31.1224 17.4789 31.0789 17.7435L28.8109 31.5005C28.5909 32.8275 27.1349 33.5885 25.9179 32.9275C24.8999 32.3745 23.3879 31.5225 22.0279 30.6335C21.3479 30.1885 19.2649 28.7635 19.5209 27.7495C19.7409 26.8825 23.2409 23.6245 25.2409 21.6875C26.0259 20.9265 25.6679 20.4875 24.7409 21.1875C22.4389 22.9255 18.7429 25.5685 17.5209 26.3125C16.4429 26.9685 15.8809 27.0805 15.2089 26.9685C13.9829 26.7645 12.8459 26.4485 11.9179 26.0635C10.6639 25.5435 10.7249 23.8195 11.9169 23.3175L29.0169 16.1175Z" fill="#D81311"/>
</svg>
