<svg width="48" height="48" viewBox="0 0 48 48" fill="none" xmlns="http://www.w3.org/2000/svg">
<circle cx="23.8069" cy="23.8069" r="23.429" stroke="#D81311" stroke-width="0.755776"/>
<path d="M31.0778 16.0791C30.1029 15.0992 28.9417 14.3223 27.6618 13.7937C26.382 13.265 25.0091 12.9953 23.6234 13.0001C17.8172 13.0001 13.0851 17.7085 13.0851 23.4857C13.0851 25.3373 13.5742 27.136 14.4888 28.7232L13 34.1617L18.5829 32.7016C20.1248 33.5374 21.8581 33.9818 23.6234 33.9818C29.4296 33.9818 34.1617 29.2734 34.1617 23.4962C34.1617 20.6923 33.0664 18.0577 31.0778 16.0791ZM23.6234 32.2043C22.0496 32.2043 20.5076 31.781 19.1571 30.9875L18.8381 30.797L15.5203 31.6646L16.4029 28.4481L16.1902 28.1201C15.3158 26.7308 14.8515 25.1249 14.8503 23.4857C14.8503 18.682 18.7849 14.7671 23.6128 14.7671C25.9522 14.7671 28.1535 15.677 29.8018 17.3276C30.6179 18.136 31.2647 19.0974 31.7046 20.1563C32.1445 21.2152 32.3689 22.3505 32.3646 23.4962C32.3858 28.2999 28.4512 32.2043 23.6234 32.2043ZM28.43 25.6865C28.1641 25.5595 26.8668 24.9247 26.6328 24.8294C26.3882 24.7448 26.2181 24.7025 26.0373 24.9564C25.8565 25.2209 25.3567 25.8134 25.2079 25.9827C25.059 26.1626 24.8995 26.1838 24.6336 26.0462C24.3678 25.9193 23.5171 25.6336 22.5175 24.7448C21.7305 24.0464 21.2095 23.1894 21.05 22.9249C20.9011 22.6604 21.0287 22.5228 21.1669 22.3853C21.2839 22.2689 21.4328 22.0784 21.5604 21.9303C21.688 21.7821 21.7412 21.6658 21.8262 21.4965C21.9113 21.3166 21.8688 21.1685 21.805 21.0415C21.7412 20.9145 21.2095 19.6237 20.9968 19.0946C20.7841 18.5867 20.5608 18.6502 20.4013 18.6396H19.8908C19.7101 18.6396 19.4336 18.7031 19.189 18.9676C18.9551 19.2322 18.2745 19.867 18.2745 21.1579C18.2745 22.4487 19.2209 23.6973 19.3485 23.8666C19.4761 24.0464 21.2095 26.6917 23.8467 27.8238C24.4741 28.0989 24.9633 28.2576 25.3461 28.374C25.9735 28.575 26.5478 28.5433 27.005 28.4798C27.5154 28.4057 28.5682 27.845 28.7809 27.2313C29.0042 26.6176 29.0042 26.0991 28.9298 25.9827C28.8553 25.8663 28.6958 25.8134 28.43 25.6865Z" fill="#D81311"/>
</svg>
